<svg xmlns="http://www.w3.org/2000/svg" version="1.1" xmlns:xlink="http://www.w3.org/1999/xlink" xmlns:svgjs="http://svgjs.dev/svgjs" viewBox="0 0 800 800" width="800" height="800"><g stroke-width="1.25" stroke="hsla(0, 0%, 69%, 1.00)" fill="none"><line x1="0" y1="0" x2="44.44444444444444" y2="44.44444444444444"></line><line x1="44.44444444444444" y1="0" x2="88.88888888888889" y2="44.44444444444444"></line><line x1="88.88888888888889" y1="0" x2="133.33333333333331" y2="44.44444444444444"></line><line x1="133.33333333333331" y1="0" x2="177.77777777777777" y2="44.44444444444444"></line><line x1="177.77777777777777" y1="0" x2="222.22222222222223" y2="44.44444444444444"></line><line x1="222.22222222222223" y1="0" x2="266.6666666666667" y2="44.44444444444444"></line><line x1="266.6666666666667" y1="0" x2="311.11111111111114" y2="44.44444444444444"></line><line x1="311.11111111111114" y1="0" x2="355.5555555555556" y2="44.44444444444444"></line><line x1="355.5555555555556" y1="0" x2="400.00000000000006" y2="44.44444444444444"></line><line x1="400.00000000000006" y1="0" x2="444.4444444444445" y2="44.44444444444444"></line><line x1="444.4444444444445" y1="0" x2="488.88888888888897" y2="44.44444444444444"></line><line x1="488.88888888888897" y1="0" x2="533.3333333333334" y2="44.44444444444444"></line><line x1="533.3333333333334" y1="0" x2="577.7777777777778" y2="44.44444444444444"></line><line x1="577.7777777777778" y1="0" x2="622.2222222222223" y2="44.44444444444444"></line><line x1="622.2222222222223" y1="0" x2="666.6666666666667" y2="44.44444444444444"></line><line x1="666.6666666666667" y1="0" x2="711.1111111111112" y2="44.44444444444444"></line><line x1="711.1111111111112" y1="0" x2="755.5555555555557" y2="44.44444444444444"></line><line x1="755.5555555555557" y1="0" x2="800.0000000000001" y2="44.44444444444444"></line><line x1="800.0000000000001" y1="0" x2="844.4444444444446" y2="44.44444444444444"></line><line x1="0" y1="57.142857142857146" x2="44.44444444444444" y2="101.5873015873016"></line><line x1="44.44444444444444" y1="57.142857142857146" x2="88.88888888888889" y2="101.5873015873016"></line><line x1="88.88888888888889" y1="57.142857142857146" x2="133.33333333333331" y2="101.5873015873016"></line><line x1="133.33333333333331" y1="57.142857142857146" x2="177.77777777777777" y2="101.5873015873016"></line><line x1="177.77777777777777" y1="57.142857142857146" x2="222.22222222222223" y2="101.5873015873016"></line><line x1="222.22222222222223" y1="57.142857142857146" x2="266.6666666666667" y2="101.5873015873016"></line><line x1="266.6666666666667" y1="57.142857142857146" x2="311.11111111111114" y2="101.5873015873016"></line><line x1="311.11111111111114" y1="57.142857142857146" x2="355.5555555555556" y2="101.5873015873016"></line><line x1="355.5555555555556" y1="57.142857142857146" x2="400.00000000000006" y2="101.5873015873016"></line><line x1="400.00000000000006" y1="57.142857142857146" x2="444.4444444444445" y2="101.5873015873016"></line><line x1="444.4444444444445" y1="57.142857142857146" x2="488.88888888888897" y2="101.5873015873016"></line><line x1="488.88888888888897" y1="57.142857142857146" x2="533.3333333333334" y2="101.5873015873016"></line><line x1="533.3333333333334" y1="57.142857142857146" x2="577.7777777777778" y2="101.5873015873016"></line><line x1="577.7777777777778" y1="57.142857142857146" x2="622.2222222222223" y2="101.5873015873016"></line><line x1="622.2222222222223" y1="57.142857142857146" x2="666.6666666666667" y2="101.5873015873016"></line><line x1="666.6666666666667" y1="57.142857142857146" x2="711.1111111111112" y2="101.5873015873016"></line><line x1="711.1111111111112" y1="57.142857142857146" x2="755.5555555555557" y2="101.5873015873016"></line><line x1="755.5555555555557" y1="57.142857142857146" x2="800.0000000000001" y2="101.5873015873016"></line><line x1="800.0000000000001" y1="57.142857142857146" x2="844.4444444444446" y2="101.5873015873016"></line><line x1="0" y1="114.28571428571429" x2="44.44444444444444" y2="158.73015873015873"></line><line x1="44.44444444444444" y1="114.28571428571429" x2="88.88888888888889" y2="158.73015873015873"></line><line x1="88.88888888888889" y1="114.28571428571429" x2="133.33333333333331" y2="158.73015873015873"></line><line x1="133.33333333333331" y1="114.28571428571429" x2="177.77777777777777" y2="158.73015873015873"></line><line x1="177.77777777777777" y1="114.28571428571429" x2="222.22222222222223" y2="158.73015873015873"></line><line x1="222.22222222222223" y1="114.28571428571429" x2="266.6666666666667" y2="158.73015873015873"></line><line x1="266.6666666666667" y1="114.28571428571429" x2="311.11111111111114" y2="158.73015873015873"></line><line x1="311.11111111111114" y1="114.28571428571429" x2="355.5555555555556" y2="158.73015873015873"></line><line x1="355.5555555555556" y1="114.28571428571429" x2="400.00000000000006" y2="158.73015873015873"></line><line x1="400.00000000000006" y1="114.28571428571429" x2="444.4444444444445" y2="158.73015873015873"></line><line x1="444.4444444444445" y1="114.28571428571429" x2="488.88888888888897" y2="158.73015873015873"></line><line x1="488.88888888888897" y1="114.28571428571429" x2="533.3333333333334" y2="158.73015873015873"></line><line x1="533.3333333333334" y1="114.28571428571429" x2="577.7777777777778" y2="158.73015873015873"></line><line x1="577.7777777777778" y1="114.28571428571429" x2="622.2222222222223" y2="158.73015873015873"></line><line x1="622.2222222222223" y1="114.28571428571429" x2="666.6666666666667" y2="158.73015873015873"></line><line x1="666.6666666666667" y1="114.28571428571429" x2="711.1111111111112" y2="158.73015873015873"></line><line x1="711.1111111111112" y1="114.28571428571429" x2="755.5555555555557" y2="158.73015873015873"></line><line x1="755.5555555555557" y1="114.28571428571429" x2="800.0000000000001" y2="158.73015873015873"></line><line x1="800.0000000000001" y1="114.28571428571429" x2="844.4444444444446" y2="158.73015873015873"></line><line x1="0" y1="171.42857142857144" x2="44.44444444444444" y2="215.8730158730159"></line><line x1="44.44444444444444" y1="171.42857142857144" x2="88.88888888888889" y2="215.8730158730159"></line><line x1="88.88888888888889" y1="171.42857142857144" x2="133.33333333333331" y2="215.8730158730159"></line><line x1="133.33333333333331" y1="171.42857142857144" x2="177.77777777777777" y2="215.8730158730159"></line><line x1="177.77777777777777" y1="171.42857142857144" x2="222.22222222222223" y2="215.8730158730159"></line><line x1="222.22222222222223" y1="171.42857142857144" x2="266.6666666666667" y2="215.8730158730159"></line><line x1="266.6666666666667" y1="171.42857142857144" x2="311.11111111111114" y2="215.8730158730159"></line><line x1="311.11111111111114" y1="171.42857142857144" x2="355.5555555555556" y2="215.8730158730159"></line><line x1="355.5555555555556" y1="171.42857142857144" x2="400.00000000000006" y2="215.8730158730159"></line><line x1="400.00000000000006" y1="171.42857142857144" x2="444.4444444444445" y2="215.8730158730159"></line><line x1="444.4444444444445" y1="171.42857142857144" x2="488.88888888888897" y2="215.8730158730159"></line><line x1="488.88888888888897" y1="171.42857142857144" x2="533.3333333333334" y2="215.8730158730159"></line><line x1="533.3333333333334" y1="171.42857142857144" x2="577.7777777777778" y2="215.8730158730159"></line><line x1="577.7777777777778" y1="171.42857142857144" x2="622.2222222222223" y2="215.8730158730159"></line><line x1="622.2222222222223" y1="171.42857142857144" x2="666.6666666666667" y2="215.8730158730159"></line><line x1="666.6666666666667" y1="171.42857142857144" x2="711.1111111111112" y2="215.8730158730159"></line><line x1="711.1111111111112" y1="171.42857142857144" x2="755.5555555555557" y2="215.8730158730159"></line><line x1="755.5555555555557" y1="171.42857142857144" x2="800.0000000000001" y2="215.8730158730159"></line><line x1="800.0000000000001" y1="171.42857142857144" x2="844.4444444444446" y2="215.8730158730159"></line><line x1="0" y1="228.57142857142858" x2="44.44444444444444" y2="273.015873015873"></line><line x1="44.44444444444444" y1="228.57142857142858" x2="88.88888888888889" y2="273.015873015873"></line><line x1="88.88888888888889" y1="228.57142857142858" x2="133.33333333333331" y2="273.015873015873"></line><line x1="133.33333333333331" y1="228.57142857142858" x2="177.77777777777777" y2="273.015873015873"></line><line x1="177.77777777777777" y1="228.57142857142858" x2="222.22222222222223" y2="273.015873015873"></line><line x1="222.22222222222223" y1="228.57142857142858" x2="266.6666666666667" y2="273.015873015873"></line><line x1="266.6666666666667" y1="228.57142857142858" x2="311.11111111111114" y2="273.015873015873"></line><line x1="311.11111111111114" y1="228.57142857142858" x2="355.5555555555556" y2="273.015873015873"></line><line x1="355.5555555555556" y1="228.57142857142858" x2="400.00000000000006" y2="273.015873015873"></line><line x1="400.00000000000006" y1="228.57142857142858" x2="444.4444444444445" y2="273.015873015873"></line><line x1="444.4444444444445" y1="228.57142857142858" x2="488.88888888888897" y2="273.015873015873"></line><line x1="488.88888888888897" y1="228.57142857142858" x2="533.3333333333334" y2="273.015873015873"></line><line x1="533.3333333333334" y1="228.57142857142858" x2="577.7777777777778" y2="273.015873015873"></line><line x1="577.7777777777778" y1="228.57142857142858" x2="622.2222222222223" y2="273.015873015873"></line><line x1="622.2222222222223" y1="228.57142857142858" x2="666.6666666666667" y2="273.015873015873"></line><line x1="666.6666666666667" y1="228.57142857142858" x2="711.1111111111112" y2="273.015873015873"></line><line x1="711.1111111111112" y1="228.57142857142858" x2="755.5555555555557" y2="273.015873015873"></line><line x1="755.5555555555557" y1="228.57142857142858" x2="800.0000000000001" y2="273.015873015873"></line><line x1="800.0000000000001" y1="228.57142857142858" x2="844.4444444444446" y2="273.015873015873"></line><line x1="0" y1="285.7142857142857" x2="44.44444444444444" y2="330.1587301587302"></line><line x1="44.44444444444444" y1="285.7142857142857" x2="88.88888888888889" y2="330.1587301587302"></line><line x1="88.88888888888889" y1="285.7142857142857" x2="133.33333333333331" y2="330.1587301587302"></line><line x1="133.33333333333331" y1="285.7142857142857" x2="177.77777777777777" y2="330.1587301587302"></line><line x1="177.77777777777777" y1="285.7142857142857" x2="222.22222222222223" y2="330.1587301587302"></line><line x1="222.22222222222223" y1="285.7142857142857" x2="266.6666666666667" y2="330.1587301587302"></line><line x1="266.6666666666667" y1="285.7142857142857" x2="311.11111111111114" y2="330.1587301587302"></line><line x1="311.11111111111114" y1="285.7142857142857" x2="355.5555555555556" y2="330.1587301587302"></line><line x1="355.5555555555556" y1="285.7142857142857" x2="400.00000000000006" y2="330.1587301587302"></line><line x1="400.00000000000006" y1="285.7142857142857" x2="444.4444444444445" y2="330.1587301587302"></line><line x1="444.4444444444445" y1="285.7142857142857" x2="488.88888888888897" y2="330.1587301587302"></line><line x1="488.88888888888897" y1="285.7142857142857" x2="533.3333333333334" y2="330.1587301587302"></line><line x1="533.3333333333334" y1="285.7142857142857" x2="577.7777777777778" y2="330.1587301587302"></line><line x1="577.7777777777778" y1="285.7142857142857" x2="622.2222222222223" y2="330.1587301587302"></line><line x1="622.2222222222223" y1="285.7142857142857" x2="666.6666666666667" y2="330.1587301587302"></line><line x1="666.6666666666667" y1="285.7142857142857" x2="711.1111111111112" y2="330.1587301587302"></line><line x1="711.1111111111112" y1="285.7142857142857" x2="755.5555555555557" y2="330.1587301587302"></line><line x1="755.5555555555557" y1="285.7142857142857" x2="800.0000000000001" y2="330.1587301587302"></line><line x1="800.0000000000001" y1="285.7142857142857" x2="844.4444444444446" y2="330.1587301587302"></line><line x1="0" y1="342.8571428571429" x2="44.44444444444444" y2="387.30158730158735"></line><line x1="44.44444444444444" y1="342.8571428571429" x2="88.88888888888889" y2="387.30158730158735"></line><line x1="88.88888888888889" y1="342.8571428571429" x2="133.33333333333331" y2="387.30158730158735"></line><line x1="133.33333333333331" y1="342.8571428571429" x2="177.77777777777777" y2="387.30158730158735"></line><line x1="177.77777777777777" y1="342.8571428571429" x2="222.22222222222223" y2="387.30158730158735"></line><line x1="222.22222222222223" y1="342.8571428571429" x2="266.6666666666667" y2="387.30158730158735"></line><line x1="266.6666666666667" y1="342.8571428571429" x2="311.11111111111114" y2="387.30158730158735"></line><line x1="311.11111111111114" y1="342.8571428571429" x2="355.5555555555556" y2="387.30158730158735"></line><line x1="355.5555555555556" y1="342.8571428571429" x2="400.00000000000006" y2="387.30158730158735"></line><line x1="400.00000000000006" y1="342.8571428571429" x2="444.4444444444445" y2="387.30158730158735"></line><line x1="444.4444444444445" y1="342.8571428571429" x2="488.88888888888897" y2="387.30158730158735"></line><line x1="488.88888888888897" y1="342.8571428571429" x2="533.3333333333334" y2="387.30158730158735"></line><line x1="533.3333333333334" y1="342.8571428571429" x2="577.7777777777778" y2="387.30158730158735"></line><line x1="577.7777777777778" y1="342.8571428571429" x2="622.2222222222223" y2="387.30158730158735"></line><line x1="622.2222222222223" y1="342.8571428571429" x2="666.6666666666667" y2="387.30158730158735"></line><line x1="666.6666666666667" y1="342.8571428571429" x2="711.1111111111112" y2="387.30158730158735"></line><line x1="711.1111111111112" y1="342.8571428571429" x2="755.5555555555557" y2="387.30158730158735"></line><line x1="755.5555555555557" y1="342.8571428571429" x2="800.0000000000001" y2="387.30158730158735"></line><line x1="800.0000000000001" y1="342.8571428571429" x2="844.4444444444446" y2="387.30158730158735"></line><line x1="0" y1="400.00000000000006" x2="44.44444444444444" y2="444.4444444444445"></line><line x1="44.44444444444444" y1="400.00000000000006" x2="88.88888888888889" y2="444.4444444444445"></line><line x1="88.88888888888889" y1="400.00000000000006" x2="133.33333333333331" y2="444.4444444444445"></line><line x1="133.33333333333331" y1="400.00000000000006" x2="177.77777777777777" y2="444.4444444444445"></line><line x1="177.77777777777777" y1="400.00000000000006" x2="222.22222222222223" y2="444.4444444444445"></line><line x1="222.22222222222223" y1="400.00000000000006" x2="266.6666666666667" y2="444.4444444444445"></line><line x1="266.6666666666667" y1="400.00000000000006" x2="311.11111111111114" y2="444.4444444444445"></line><line x1="311.11111111111114" y1="400.00000000000006" x2="355.5555555555556" y2="444.4444444444445"></line><line x1="355.5555555555556" y1="400.00000000000006" x2="400.00000000000006" y2="444.4444444444445"></line><line x1="400.00000000000006" y1="400.00000000000006" x2="444.4444444444445" y2="444.4444444444445"></line><line x1="444.4444444444445" y1="400.00000000000006" x2="488.88888888888897" y2="444.4444444444445"></line><line x1="488.88888888888897" y1="400.00000000000006" x2="533.3333333333334" y2="444.4444444444445"></line><line x1="533.3333333333334" y1="400.00000000000006" x2="577.7777777777778" y2="444.4444444444445"></line><line x1="577.7777777777778" y1="400.00000000000006" x2="622.2222222222223" y2="444.4444444444445"></line><line x1="622.2222222222223" y1="400.00000000000006" x2="666.6666666666667" y2="444.4444444444445"></line><line x1="666.6666666666667" y1="400.00000000000006" x2="711.1111111111112" y2="444.4444444444445"></line><line x1="711.1111111111112" y1="400.00000000000006" x2="755.5555555555557" y2="444.4444444444445"></line><line x1="755.5555555555557" y1="400.00000000000006" x2="800.0000000000001" y2="444.4444444444445"></line><line x1="800.0000000000001" y1="400.00000000000006" x2="844.4444444444446" y2="444.4444444444445"></line><line x1="0" y1="457.1428571428572" x2="44.44444444444444" y2="501.5873015873017"></line><line x1="44.44444444444444" y1="457.1428571428572" x2="88.88888888888889" y2="501.5873015873017"></line><line x1="88.88888888888889" y1="457.1428571428572" x2="133.33333333333331" y2="501.5873015873017"></line><line x1="133.33333333333331" y1="457.1428571428572" x2="177.77777777777777" y2="501.5873015873017"></line><line x1="177.77777777777777" y1="457.1428571428572" x2="222.22222222222223" y2="501.5873015873017"></line><line x1="222.22222222222223" y1="457.1428571428572" x2="266.6666666666667" y2="501.5873015873017"></line><line x1="266.6666666666667" y1="457.1428571428572" x2="311.11111111111114" y2="501.5873015873017"></line><line x1="311.11111111111114" y1="457.1428571428572" x2="355.5555555555556" y2="501.5873015873017"></line><line x1="355.5555555555556" y1="457.1428571428572" x2="400.00000000000006" y2="501.5873015873017"></line><line x1="400.00000000000006" y1="457.1428571428572" x2="444.4444444444445" y2="501.5873015873017"></line><line x1="444.4444444444445" y1="457.1428571428572" x2="488.88888888888897" y2="501.5873015873017"></line><line x1="488.88888888888897" y1="457.1428571428572" x2="533.3333333333334" y2="501.5873015873017"></line><line x1="533.3333333333334" y1="457.1428571428572" x2="577.7777777777778" y2="501.5873015873017"></line><line x1="577.7777777777778" y1="457.1428571428572" x2="622.2222222222223" y2="501.5873015873017"></line><line x1="622.2222222222223" y1="457.1428571428572" x2="666.6666666666667" y2="501.5873015873017"></line><line x1="666.6666666666667" y1="457.1428571428572" x2="711.1111111111112" y2="501.5873015873017"></line><line x1="711.1111111111112" y1="457.1428571428572" x2="755.5555555555557" y2="501.5873015873017"></line><line x1="755.5555555555557" y1="457.1428571428572" x2="800.0000000000001" y2="501.5873015873017"></line><line x1="800.0000000000001" y1="457.1428571428572" x2="844.4444444444446" y2="501.5873015873017"></line><line x1="0" y1="514.2857142857143" x2="44.44444444444444" y2="558.7301587301588"></line><line x1="44.44444444444444" y1="514.2857142857143" x2="88.88888888888889" y2="558.7301587301588"></line><line x1="88.88888888888889" y1="514.2857142857143" x2="133.33333333333331" y2="558.7301587301588"></line><line x1="133.33333333333331" y1="514.2857142857143" x2="177.77777777777777" y2="558.7301587301588"></line><line x1="177.77777777777777" y1="514.2857142857143" x2="222.22222222222223" y2="558.7301587301588"></line><line x1="222.22222222222223" y1="514.2857142857143" x2="266.6666666666667" y2="558.7301587301588"></line><line x1="266.6666666666667" y1="514.2857142857143" x2="311.11111111111114" y2="558.7301587301588"></line><line x1="311.11111111111114" y1="514.2857142857143" x2="355.5555555555556" y2="558.7301587301588"></line><line x1="355.5555555555556" y1="514.2857142857143" x2="400.00000000000006" y2="558.7301587301588"></line><line x1="400.00000000000006" y1="514.2857142857143" x2="444.4444444444445" y2="558.7301587301588"></line><line x1="444.4444444444445" y1="514.2857142857143" x2="488.88888888888897" y2="558.7301587301588"></line><line x1="488.88888888888897" y1="514.2857142857143" x2="533.3333333333334" y2="558.7301587301588"></line><line x1="533.3333333333334" y1="514.2857142857143" x2="577.7777777777778" y2="558.7301587301588"></line><line x1="577.7777777777778" y1="514.2857142857143" x2="622.2222222222223" y2="558.7301587301588"></line><line x1="622.2222222222223" y1="514.2857142857143" x2="666.6666666666667" y2="558.7301587301588"></line><line x1="666.6666666666667" y1="514.2857142857143" x2="711.1111111111112" y2="558.7301587301588"></line><line x1="711.1111111111112" y1="514.2857142857143" x2="755.5555555555557" y2="558.7301587301588"></line><line x1="755.5555555555557" y1="514.2857142857143" x2="800.0000000000001" y2="558.7301587301588"></line><line x1="800.0000000000001" y1="514.2857142857143" x2="844.4444444444446" y2="558.7301587301588"></line><line x1="0" y1="571.4285714285714" x2="44.44444444444444" y2="615.8730158730159"></line><line x1="44.44444444444444" y1="571.4285714285714" x2="88.88888888888889" y2="615.8730158730159"></line><line x1="88.88888888888889" y1="571.4285714285714" x2="133.33333333333331" y2="615.8730158730159"></line><line x1="133.33333333333331" y1="571.4285714285714" x2="177.77777777777777" y2="615.8730158730159"></line><line x1="177.77777777777777" y1="571.4285714285714" x2="222.22222222222223" y2="615.8730158730159"></line><line x1="222.22222222222223" y1="571.4285714285714" x2="266.6666666666667" y2="615.8730158730159"></line><line x1="266.6666666666667" y1="571.4285714285714" x2="311.11111111111114" y2="615.8730158730159"></line><line x1="311.11111111111114" y1="571.4285714285714" x2="355.5555555555556" y2="615.8730158730159"></line><line x1="355.5555555555556" y1="571.4285714285714" x2="400.00000000000006" y2="615.8730158730159"></line><line x1="400.00000000000006" y1="571.4285714285714" x2="444.4444444444445" y2="615.8730158730159"></line><line x1="444.4444444444445" y1="571.4285714285714" x2="488.88888888888897" y2="615.8730158730159"></line><line x1="488.88888888888897" y1="571.4285714285714" x2="533.3333333333334" y2="615.8730158730159"></line><line x1="533.3333333333334" y1="571.4285714285714" x2="577.7777777777778" y2="615.8730158730159"></line><line x1="577.7777777777778" y1="571.4285714285714" x2="622.2222222222223" y2="615.8730158730159"></line><line x1="622.2222222222223" y1="571.4285714285714" x2="666.6666666666667" y2="615.8730158730159"></line><line x1="666.6666666666667" y1="571.4285714285714" x2="711.1111111111112" y2="615.8730158730159"></line><line x1="711.1111111111112" y1="571.4285714285714" x2="755.5555555555557" y2="615.8730158730159"></line><line x1="755.5555555555557" y1="571.4285714285714" x2="800.0000000000001" y2="615.8730158730159"></line><line x1="800.0000000000001" y1="571.4285714285714" x2="844.4444444444446" y2="615.8730158730159"></line><line x1="0" y1="628.5714285714286" x2="44.44444444444444" y2="673.015873015873"></line><line x1="44.44444444444444" y1="628.5714285714286" x2="88.88888888888889" y2="673.015873015873"></line><line x1="88.88888888888889" y1="628.5714285714286" x2="133.33333333333331" y2="673.015873015873"></line><line x1="133.33333333333331" y1="628.5714285714286" x2="177.77777777777777" y2="673.015873015873"></line><line x1="177.77777777777777" y1="628.5714285714286" x2="222.22222222222223" y2="673.015873015873"></line><line x1="222.22222222222223" y1="628.5714285714286" x2="266.6666666666667" y2="673.015873015873"></line><line x1="266.6666666666667" y1="628.5714285714286" x2="311.11111111111114" y2="673.015873015873"></line><line x1="311.11111111111114" y1="628.5714285714286" x2="355.5555555555556" y2="673.015873015873"></line><line x1="355.5555555555556" y1="628.5714285714286" x2="400.00000000000006" y2="673.015873015873"></line><line x1="400.00000000000006" y1="628.5714285714286" x2="444.4444444444445" y2="673.015873015873"></line><line x1="444.4444444444445" y1="628.5714285714286" x2="488.88888888888897" y2="673.015873015873"></line><line x1="488.88888888888897" y1="628.5714285714286" x2="533.3333333333334" y2="673.015873015873"></line><line x1="533.3333333333334" y1="628.5714285714286" x2="577.7777777777778" y2="673.015873015873"></line><line x1="577.7777777777778" y1="628.5714285714286" x2="622.2222222222223" y2="673.015873015873"></line><line x1="622.2222222222223" y1="628.5714285714286" x2="666.6666666666667" y2="673.015873015873"></line><line x1="666.6666666666667" y1="628.5714285714286" x2="711.1111111111112" y2="673.015873015873"></line><line x1="711.1111111111112" y1="628.5714285714286" x2="755.5555555555557" y2="673.015873015873"></line><line x1="755.5555555555557" y1="628.5714285714286" x2="800.0000000000001" y2="673.015873015873"></line><line x1="800.0000000000001" y1="628.5714285714286" x2="844.4444444444446" y2="673.015873015873"></line><line x1="0" y1="685.7142857142857" x2="44.44444444444444" y2="730.1587301587301"></line><line x1="44.44444444444444" y1="685.7142857142857" x2="88.88888888888889" y2="730.1587301587301"></line><line x1="88.88888888888889" y1="685.7142857142857" x2="133.33333333333331" y2="730.1587301587301"></line><line x1="133.33333333333331" y1="685.7142857142857" x2="177.77777777777777" y2="730.1587301587301"></line><line x1="177.77777777777777" y1="685.7142857142857" x2="222.22222222222223" y2="730.1587301587301"></line><line x1="222.22222222222223" y1="685.7142857142857" x2="266.6666666666667" y2="730.1587301587301"></line><line x1="266.6666666666667" y1="685.7142857142857" x2="311.11111111111114" y2="730.1587301587301"></line><line x1="311.11111111111114" y1="685.7142857142857" x2="355.5555555555556" y2="730.1587301587301"></line><line x1="355.5555555555556" y1="685.7142857142857" x2="400.00000000000006" y2="730.1587301587301"></line><line x1="400.00000000000006" y1="685.7142857142857" x2="444.4444444444445" y2="730.1587301587301"></line><line x1="444.4444444444445" y1="685.7142857142857" x2="488.88888888888897" y2="730.1587301587301"></line><line x1="488.88888888888897" y1="685.7142857142857" x2="533.3333333333334" y2="730.1587301587301"></line><line x1="533.3333333333334" y1="685.7142857142857" x2="577.7777777777778" y2="730.1587301587301"></line><line x1="577.7777777777778" y1="685.7142857142857" x2="622.2222222222223" y2="730.1587301587301"></line><line x1="622.2222222222223" y1="685.7142857142857" x2="666.6666666666667" y2="730.1587301587301"></line><line x1="666.6666666666667" y1="685.7142857142857" x2="711.1111111111112" y2="730.1587301587301"></line><line x1="711.1111111111112" y1="685.7142857142857" x2="755.5555555555557" y2="730.1587301587301"></line><line x1="755.5555555555557" y1="685.7142857142857" x2="800.0000000000001" y2="730.1587301587301"></line><line x1="800.0000000000001" y1="685.7142857142857" x2="844.4444444444446" y2="730.1587301587301"></line><line x1="0" y1="742.8571428571428" x2="44.44444444444444" y2="787.3015873015872"></line><line x1="44.44444444444444" y1="742.8571428571428" x2="88.88888888888889" y2="787.3015873015872"></line><line x1="88.88888888888889" y1="742.8571428571428" x2="133.33333333333331" y2="787.3015873015872"></line><line x1="133.33333333333331" y1="742.8571428571428" x2="177.77777777777777" y2="787.3015873015872"></line><line x1="177.77777777777777" y1="742.8571428571428" x2="222.22222222222223" y2="787.3015873015872"></line><line x1="222.22222222222223" y1="742.8571428571428" x2="266.6666666666667" y2="787.3015873015872"></line><line x1="266.6666666666667" y1="742.8571428571428" x2="311.11111111111114" y2="787.3015873015872"></line><line x1="311.11111111111114" y1="742.8571428571428" x2="355.5555555555556" y2="787.3015873015872"></line><line x1="355.5555555555556" y1="742.8571428571428" x2="400.00000000000006" y2="787.3015873015872"></line><line x1="400.00000000000006" y1="742.8571428571428" x2="444.4444444444445" y2="787.3015873015872"></line><line x1="444.4444444444445" y1="742.8571428571428" x2="488.88888888888897" y2="787.3015873015872"></line><line x1="488.88888888888897" y1="742.8571428571428" x2="533.3333333333334" y2="787.3015873015872"></line><line x1="533.3333333333334" y1="742.8571428571428" x2="577.7777777777778" y2="787.3015873015872"></line><line x1="577.7777777777778" y1="742.8571428571428" x2="622.2222222222223" y2="787.3015873015872"></line><line x1="622.2222222222223" y1="742.8571428571428" x2="666.6666666666667" y2="787.3015873015872"></line><line x1="666.6666666666667" y1="742.8571428571428" x2="711.1111111111112" y2="787.3015873015872"></line><line x1="711.1111111111112" y1="742.8571428571428" x2="755.5555555555557" y2="787.3015873015872"></line><line x1="755.5555555555557" y1="742.8571428571428" x2="800.0000000000001" y2="787.3015873015872"></line><line x1="800.0000000000001" y1="742.8571428571428" x2="844.4444444444446" y2="787.3015873015872"></line><line x1="0" y1="799.9999999999999" x2="44.44444444444444" y2="844.4444444444443"></line><line x1="44.44444444444444" y1="799.9999999999999" x2="88.88888888888889" y2="844.4444444444443"></line><line x1="88.88888888888889" y1="799.9999999999999" x2="133.33333333333331" y2="844.4444444444443"></line><line x1="133.33333333333331" y1="799.9999999999999" x2="177.77777777777777" y2="844.4444444444443"></line><line x1="177.77777777777777" y1="799.9999999999999" x2="222.22222222222223" y2="844.4444444444443"></line><line x1="222.22222222222223" y1="799.9999999999999" x2="266.6666666666667" y2="844.4444444444443"></line><line x1="266.6666666666667" y1="799.9999999999999" x2="311.11111111111114" y2="844.4444444444443"></line><line x1="311.11111111111114" y1="799.9999999999999" x2="355.5555555555556" y2="844.4444444444443"></line><line x1="355.5555555555556" y1="799.9999999999999" x2="400.00000000000006" y2="844.4444444444443"></line><line x1="400.00000000000006" y1="799.9999999999999" x2="444.4444444444445" y2="844.4444444444443"></line><line x1="444.4444444444445" y1="799.9999999999999" x2="488.88888888888897" y2="844.4444444444443"></line><line x1="488.88888888888897" y1="799.9999999999999" x2="533.3333333333334" y2="844.4444444444443"></line><line x1="533.3333333333334" y1="799.9999999999999" x2="577.7777777777778" y2="844.4444444444443"></line><line x1="577.7777777777778" y1="799.9999999999999" x2="622.2222222222223" y2="844.4444444444443"></line><line x1="622.2222222222223" y1="799.9999999999999" x2="666.6666666666667" y2="844.4444444444443"></line><line x1="666.6666666666667" y1="799.9999999999999" x2="711.1111111111112" y2="844.4444444444443"></line><line x1="711.1111111111112" y1="799.9999999999999" x2="755.5555555555557" y2="844.4444444444443"></line><line x1="755.5555555555557" y1="799.9999999999999" x2="800.0000000000001" y2="844.4444444444443"></line><line x1="800.0000000000001" y1="799.9999999999999" x2="844.4444444444446" y2="844.4444444444443"></line></g></svg>